# Blender v3.4.0 OBJ File: ''
# www.blender.org
mtllib LightHall.mtl
o Cube
v 4.551478 0.100000 -34.551479
v 5.000000 -0.100000 -35.000000
v 4.551478 0.100000 14.551477
v 5.000000 -0.100000 15.000000
v -8.551477 0.100000 -34.551479
v -9.000000 -0.100000 -35.000000
v -8.551477 0.100000 14.551477
v -9.000000 -0.100000 15.000000
v 5.000000 0.100000 15.000000
v -9.000000 0.100000 15.000000
v 5.000000 0.100000 -35.000000
v -9.000000 0.100000 -35.000000
v 5.000000 5.100000 15.000000
v -9.000000 5.100000 15.000000
v 5.000000 5.100000 -35.000000
v -9.000000 5.100000 -35.000000
v 4.551478 5.100000 14.551477
v -8.551477 5.100000 14.551477
v 4.551478 5.100000 -34.551479
v -8.551477 5.100000 -34.551479
v 5.000000 9.008728 15.000000
v -9.000000 5.100000 15.000000
v 5.000000 9.008728 -35.000000
v -9.000000 5.100000 -35.000000
v 4.551478 9.008728 14.551477
v -8.551477 5.100000 14.551477
v 4.551478 9.008728 -34.551479
v 0.333333 -0.100000 -35.000000
v -4.333333 -0.100000 -35.000000
v 0.333333 0.100000 15.000000
v -4.333333 0.100000 15.000000
v -4.333333 -0.100000 15.000000
v 0.333333 -0.100000 15.000000
v -4.333333 0.100000 -35.000000
v 0.333333 0.100000 -35.000000
v 0.183826 0.100000 14.551477
v -4.683826 0.100000 14.551477
v -4.683825 0.100000 -34.551479
v 0.183826 0.100000 -34.551479
v 0.333333 5.100000 15.000000
v -4.693367 5.100000 15.000000
v -4.690887 5.100000 -35.000000
v 0.333333 5.100000 -35.000000
v 0.183826 5.100000 14.551477
v -4.683826 5.100000 14.551477
v -4.683825 5.100000 -34.551479
v 0.183826 5.100000 -34.551479
v 0.193367 9.008728 15.000000
v 0.190888 9.008728 -35.000000
v 0.183826 9.008728 14.551477
v -4.683826 5.100000 14.551477
v 0.183826 9.008728 -34.551479
v -9.000000 5.617785 15.000000
v -9.000000 5.617785 -35.000000
v -8.551477 5.617785 14.551477
v -8.551477 5.617785 -34.551479
v 5.000000 9.526512 -35.000000
v 5.000000 9.526512 15.000000
v 0.190888 9.526512 -35.000000
v -4.683826 5.617785 14.551477
v -8.551477 5.617785 14.551477
v 4.551478 9.526512 -34.551479
v 4.551478 9.526512 14.551477
v 0.183826 9.526512 -34.551479
v -9.000000 5.617785 15.000000
v -9.000000 5.617785 -35.000000
v 0.193367 9.526512 15.000000
v 0.183826 9.526512 14.551477
v -4.683825 5.617785 -34.551479
v -4.693367 5.617785 15.000000
v -4.690887 5.617785 -35.000000
vt 0.788997 0.502243
vt 0.866991 0.502243
vt 0.866991 0.747757
vt 0.788997 0.747757
vt 0.375000 0.916667
vt 0.625000 0.916667
vt 0.625000 1.000000
vt 0.375000 1.000000
vt 0.375000 0.000000
vt 0.625000 0.000000
vt 0.625000 0.250000
vt 0.375000 0.250000
vt 0.291667 0.500000
vt 0.375000 0.500000
vt 0.375000 0.750000
vt 0.291667 0.750000
vt 0.625000 0.500000
vt 0.625000 0.750000
vt 0.375000 0.416667
vt 0.625000 0.416667
vt 0.633009 0.502243
vt 0.633009 0.747757
vt 0.633009 0.747757
vt 0.633009 0.502243
vt 0.711003 0.502243
vt 0.711003 0.502243
vt 0.625000 0.833333
vt 0.625000 0.750000
vt 0.625000 0.833333
vt 0.625000 0.333333
vt 0.625000 0.250000
vt 0.625000 0.333333
vt 0.625000 0.500000
vt 0.625000 0.500000
vt 0.625000 0.750000
vt 0.625000 0.250000
vt 0.866991 0.747757
vt 0.875000 0.750000
vt 0.875000 0.750000
vt 0.866991 0.747757
vt 0.633009 0.747757
vt 0.633009 0.502243
vt 0.625000 0.000000
vt 0.866991 0.502243
vt 0.866991 0.747757
vt 0.788997 0.747757
vt 0.625000 0.916667
vt 0.625000 0.833333
vt 0.625000 0.833333
vt 0.625000 0.916667
vt 0.625000 0.750000
vt 0.788997 0.747757
vt 0.875000 0.500000
vt 0.875000 0.500000
vt 0.875000 0.750000
vt 0.711003 0.502243
vt 0.788997 0.502243
vt 0.625000 1.000000
vt 0.625000 1.000000
vt 0.711003 0.747757
vt 0.711003 0.747757
vt 0.866991 0.502243
vt 0.866991 0.747757
vt 0.625000 1.000000
vt 0.633009 0.502243
vt 0.711003 0.502243
vt 0.633009 0.747757
vt 0.633009 0.502243
vt 0.711003 0.747757
vt 0.625000 0.416667
vt 0.625000 0.416667
vt 0.375000 0.333333
vt 0.125000 0.500000
vt 0.208333 0.500000
vt 0.208333 0.750000
vt 0.125000 0.750000
vt 0.375000 0.833333
vt 0.875000 0.500000
vt 0.875000 0.750000
vt 0.788997 0.747757
vt 0.791667 0.750000
vt 0.711003 0.502243
vt 0.625000 0.500000
vt 0.708333 0.500000
vt 0.788997 0.502243
vt 0.791667 0.500000
vt 0.875000 0.500000
vt 0.711003 0.747757
vt 0.708333 0.750000
vt 0.625000 0.250000
vt 0.625000 0.333333
vt 0.625000 0.000000
vt 0.625000 0.250000
vt 0.866991 0.502243
vt 0.788997 0.502243
vt 0.625000 0.416667
vt 0.711003 0.502243
vt 0.788997 0.502243
vt 0.866991 0.502243
vt 0.633009 0.502243
vn 0.0000 1.0000 -0.0000
vn 0.0000 0.0000 1.0000
vn -1.0000 0.0000 0.0000
vn 0.0000 -1.0000 0.0000
vn 1.0000 0.0000 0.0000
vn 0.0000 0.0000 -1.0000
vn -0.7071 0.0000 -0.7071
vn -0.4092 0.0000 0.9124
vn -0.6677 0.0000 -0.7444
vn 0.7071 0.0000 -0.7071
vn -0.6256 0.7802 0.0000
vn -0.6254 0.7803 -0.0000
vn 0.7071 0.0000 0.7071
vn -0.7071 0.0000 0.7071
vn 0.6261 -0.7797 0.0000
vn -0.6261 0.7797 0.0000
usemtl Material
s off
f 38/1/1 5/2/1 7/3/1 37/4/1
f 32/5/2 31/6/2 10/7/2 8/8/2
f 8/9/3 10/10/3 12/11/3 6/12/3
f 28/13/4 2/14/4 4/15/4 33/16/4
f 2/14/5 11/17/5 9/18/5 4/15/5
f 28/19/6 35/20/6 11/17/6 2/14/6
f 1/21/3 3/22/3 17/23/3 19/24/3
f 39/25/2 1/21/2 19/24/2 47/26/2
f 30/27/2 9/18/2 13/28/2 40/29/2
f 34/30/6 12/11/6 16/31/6 42/32/6
f 13/28/5 15/33/5 23/34/5 21/35/5
f 42/32/2 16/31/2 24/36/2
f 26/37/7 22/38/7 65/39/7 61/40/7
f 19/24/3 17/23/3 25/41/3 27/42/3
f 12/11/3 10/10/3 14/43/3 16/31/3
f 9/18/5 11/17/5 15/33/5 13/28/5
f 7/3/5 5/2/5 20/44/5 18/45/5
f 37/4/6 7/3/6 18/45/6 45/46/6
f 41/47/2 48/48/2 67/49/2 70/50/2
f 48/48/2 21/35/2 58/51/2 67/49/2
f 45/46/6 18/45/6 26/37/6 51/52/6
f 16/53/8 20/44/8 24/54/8
f 40/29/2 13/28/2 21/35/2 48/48/2
f 18/45/9 14/55/9 22/38/9 26/37/9
f 47/26/2 19/24/2 27/42/2 52/56/2
f 46/57/2 47/26/2 52/56/2
f 14/58/2 41/47/2 22/59/2
f 41/47/2 40/29/2 48/48/2
f 17/23/6 44/60/6 50/61/6 25/41/6
f 44/60/6 45/46/6 51/52/6 50/61/6
f 18/45/5 20/44/5 56/62/5 55/63/5
f 22/59/2 41/47/2 70/50/2 65/64/2
f 52/56/4 27/42/4 25/65/4 50/66/4
f 27/42/3 25/41/3 63/67/3 62/68/3
f 3/22/6 36/69/6 44/60/6 17/23/6
f 36/69/6 37/4/6 45/46/6 44/60/6
f 15/33/6 43/70/6 49/71/6 23/34/6
f 43/70/6 42/32/6 49/71/6
f 11/17/6 35/20/6 43/70/6 15/33/6
f 35/20/6 34/30/6 42/32/6 43/70/6
f 10/7/2 31/6/2 41/47/2 14/58/2
f 31/6/2 30/27/2 40/29/2 41/47/2
f 5/2/2 38/1/2 46/57/2 20/44/2
f 38/1/2 39/25/2 47/26/2 46/57/2
f 6/12/6 12/11/6 34/30/6 29/72/6
f 29/72/6 34/30/6 35/20/6 28/19/6
f 6/73/4 29/74/4 32/75/4 8/76/4
f 29/74/4 28/13/4 33/16/4 32/75/4
f 4/15/2 9/18/2 30/27/2 33/77/2
f 33/77/2 30/27/2 31/6/2 32/5/2
f 1/21/1 39/25/1 36/69/1 3/22/1
f 39/25/1 38/1/1 37/4/1 36/69/1
f 20/44/10 16/53/10 54/78/10 56/62/10
f 55/63/1 56/62/1 54/78/1 53/79/1
f 60/80/1 61/40/1 65/39/1 70/81/1
f 64/82/1 62/68/1 57/83/1 59/84/1
f 56/62/1 69/85/1 71/86/1 66/87/1
f 69/85/11 64/82/11 59/84/11 71/86/11
f 63/67/1 68/88/1 67/89/1 58/51/1
f 68/88/12 60/80/12 70/81/12 67/89/12
f 57/83/1 62/68/1 63/67/1 58/51/1
f 25/41/6 50/61/6 68/88/6 63/67/6
f 50/61/6 51/52/6 60/80/6 68/88/6
f 21/35/5 23/34/5 57/83/5 58/51/5
f 42/32/6 24/36/6 66/90/6 71/91/6
f 14/55/13 18/45/13 55/63/13 53/79/13
f 24/54/14 20/44/14 56/62/14 66/87/14
f 16/31/3 14/43/3 53/92/3 54/93/3
f 69/85/1 56/62/1 61/94/1 60/95/1
f 23/34/6 49/71/6 59/96/6 57/83/6
f 49/71/6 42/32/6 71/91/6 59/96/6
f 52/56/5 64/82/5 68/97/5 50/66/5
f 51/52/6 26/37/6 61/40/6 60/80/6
f 46/57/5 69/85/5 60/95/5 51/98/5
f 20/44/4 46/57/4 51/98/4 26/99/4
f 56/62/3 20/44/3 26/99/3 61/94/3
f 46/57/15 52/56/15 50/66/15 51/98/15
f 64/82/16 69/85/16 60/95/16 68/97/16
f 62/68/1 64/82/1 68/97/1 63/100/1
